<svg height="511pt" viewBox="0 0 511.99999 511" width="511pt" xmlns="http://www.w3.org/2000/svg"><path d="m372.363281 269.972656c0-128.53125-83.355469-269.472656-186.179687-269.472656-102.828125 0-186.183594 140.941406-186.183594 269.472656s83.355469 195.980469 186.183594 195.980469c102.824218 0 186.179687-67.449219 186.179687-195.980469zm0 0" fill="#97623f"/><path d="m325.816406 279.773438c0 116.363281-46.542968 162.910156-46.542968 162.910156h2.304687c54.3125-29.769532 90.785156-87.824219 90.785156-172.710938 0-128.53125-83.355469-269.472656-186.179687-269.472656 84.414062 0 139.632812 162.910156 139.632812 279.273438zm0 0" fill="#5b2c06"/><g fill="#764126"><path d="m93.089844 384.5c0 6.425781-5.207032 11.636719-11.636719 11.636719-6.425781 0-11.636719-5.210938-11.636719-11.636719s5.210938-11.636719 11.636719-11.636719c6.429687 0 11.636719 5.210938 11.636719 11.636719zm0 0"/><path d="m162.910156 431.046875c0 6.425781-5.210937 11.636719-11.636718 11.636719-6.425782 0-11.636719-5.210938-11.636719-11.636719 0-6.429687 5.210937-11.636719 11.636719-11.636719 6.425781 0 11.636718 5.207032 11.636718 11.636719zm0 0"/><path d="m232.726562 361.226562c0 6.425782-5.210937 11.636719-11.636718 11.636719-6.425782 0-11.636719-5.210937-11.636719-11.636719 0-6.425781 5.210937-11.636718 11.636719-11.636718 6.425781 0 11.636718 5.210937 11.636718 11.636718zm0 0"/><path d="m116.363281 314.683594c0 6.425781-5.210937 11.632812-11.636719 11.632812-6.425781 0-11.636718-5.207031-11.636718-11.632812 0-6.429688 5.210937-11.636719 11.636718-11.636719 6.425782 0 11.636719 5.207031 11.636719 11.636719zm0 0"/></g><path d="m325.816406 384.5c0 6.425781-5.207031 11.636719-11.636718 11.636719-6.425782 0-11.632813-5.210938-11.632813-11.636719s5.207031-11.636719 11.632813-11.636719c6.429687 0 11.636718 5.210938 11.636718 11.636719zm0 0" fill="#4d2100"/><path d="m349.089844 361.226562c0 6.425782-5.207032 11.636719-11.636719 11.636719-6.425781 0-11.636719-5.210937-11.636719-11.636719 0-6.425781 5.210938-11.636718 11.636719-11.636718 6.429687 0 11.636719 5.210937 11.636719 11.636718zm0 0" fill="#4d2100"/><path d="m349.089844 314.683594c0 6.425781-5.207032 11.632812-11.636719 11.632812-6.425781 0-11.636719-5.207031-11.636719-11.632812 0-6.429688 5.210938-11.636719 11.636719-11.636719 6.429687 0 11.636719 5.207031 11.636719 11.636719zm0 0" fill="#5b2c06"/><path d="m95.398438 163.734375c-17.671876-3.546875-38.246094 24.695313-45.953126 63.082031-7.703124 38.386719.375 72.378906 18.046876 75.925782 17.671874 3.546874 38.246093-24.695313 45.953124-63.082032 7.703126-38.382812-.375-72.378906-18.046874-75.925781zm0 0" fill="#c28d5f"/><path d="m127.777344 70.988281c-11.203125-3.734375-25.390625 8.570313-31.695313 27.476563-6.300781 18.910156-2.332031 37.265625 8.871094 41 11.199219 3.734375 25.390625-8.570313 31.691406-27.480469 6.304688-18.90625 2.332031-37.265625-8.867187-40.996094zm0 0" fill="#c28d5f"/><path d="m69.816406 268.136719c0 6.425781-5.207031 11.636719-11.632812 11.636719-6.429688 0-11.636719-5.210938-11.636719-11.636719s5.207031-11.636719 11.636719-11.636719c6.425781 0 11.632812 5.210938 11.632812 11.636719zm0 0" fill="#97623f"/><path d="m446.695312 163.703125c-21.460937-22.265625-44.355468-34.664063-67.71875-46.839844h-67.71875c-23.996093 0-45.148437 23.421875-90.292968 23.421875l-45.148438 46.839844s-45.097656 77.980469-58.675781 101.460938v.011718c-.609375 6.71875-.863281 13.46875-.757813 20.214844.003907.324219 0 .644531.007813.96875.148437 6.261719.613281 12.515625 1.394531 18.730469.105469.890625.167969 1.777343.289063 2.667969.785156 5.730468 1.960937 11.464843 3.3125 17.195312.296875 1.253906.488281 2.507812.8125 3.761719 1.761719 6.875 3.921875 13.644531 6.46875 20.269531 9.636719 24.964844 25.074219 49.433594 47.148437 72.339844 88.152344 91.460937 211.921875 85.167968 282.445313 11.996094 70.523437-73.164063 76.585937-201.578126-11.566407-293.039063zm0 0" fill="#a77554"/><path d="m232.726562 419.410156 46.546876-23.273437s24.671874-46.546875 69.816406-46.546875l69.820312-46.542969v-69.820313s-23.273437-46.398437-23.273437-69.816406c0-23.421875-16.660157-46.546875-16.660157-46.546875h-67.71875c-23.996093 0-45.148437 23.421875-90.292968 23.421875l-45.148438 46.839844s-45.097656 77.980469-58.675781 101.460938v.011718c-.609375 6.71875-.863281 13.46875-.757813 20.214844.003907.324219 0 .644531.007813.96875.148437 6.261719.613281 12.515625 1.394531 18.730469.105469.890625.167969 1.777343.289063 2.667969.785156 5.730468 1.960937 11.464843 3.3125 17.195312.296875 1.253906.488281 2.507812.8125 3.761719 1.761719 6.875 3.921875 13.644531 6.46875 20.269531l34.242187 23.730469c21.824219 12.589843 69.816406 23.273437 69.816406 23.273437zm0 0" fill="#fff8c6"/><path d="m175.136719 297.066406c-19.511719 42.496094-14.773438 81.304688 8.351562 108.175782 22.609375 8.230468 49.238281 14.167968 49.238281 14.167968l46.546876-23.273437s24.671874-46.546875 69.816406-46.546875l69.820312-46.542969v-69.820313s-23.15625-46.179687-23.257812-69.648437c-88.167969-.585937-185.910156 58.105469-220.515625 133.488281zm0 0" fill="#f4ac03"/><path d="m272.03125 148.1875c-3.679688 0-7.304688.875-10.578125 2.554688-42.898437 21.933593-79.273437 52.152343-105.191406 87.398437-.15625.210937-.308594.425781-.457031.640625-.160157.207031-.316407.417969-.472657.632812-8.734375 11.976563-16.269531 24.78125-22.496093 38.230469-2.101563 4.578125-3.992188 9.121094-5.664063 13.628907-4.476563 12.050781 1.65625 25.445312 13.703125 29.925781 12.050781 4.476562 25.445312-1.65625 29.925781-13.703125.507813-1.367188 1.039063-2.734375 1.597657-4.105469v-.003906l.101562-.242188v-.007812l.050781-.117188v-.003906l.050781-.121094.046876-.121093.003906-.007813.046875-.117187.003906-.003907.046875-.117187.003906-.007813c.035156-.082031.066406-.160156.101563-.238281l.003906-.011719.046875-.113281v-.007812l.050781-.113282.007813-.019531.042968-.101563.003907-.011718.046875-.113282.007812-.019531.046875-.109375v-.003906l.058594-.136719.042969-.101562.003906-.011719.046875-.105469.011719-.03125.042968-.101562.003907-.007813.042969-.105468.015624-.03125.042969-.105469.003907-.003907.042968-.105468.015625-.035156.042969-.101563.007812-.015625.039063-.09375.015625-.039062.039062-.089844.015626-.035156.035156-.082032.015625-.039062.042969-.09375.015624-.039063.03125-.070312.019532-.042969.042968-.097656.011719-.035156.035157-.074219.019531-.042969.039062-.097656.015625-.03125.035156-.074219.015626-.042969.042968-.09375.019532-.042968.027343-.066407.019531-.042969.042969-.09375.019531-.046874.027344-.0625.019532-.046876.042968-.09375.019532-.046874.027343-.0625.019531-.042969.042969-.09375.019531-.046875.027344-.0625.019532-.046875.042968-.09375.019532-.039063.035156-.078125.015625-.035156.042969-.097656.015624-.039063.035157-.074218.015625-.035157.046875-.097656.015625-.039063.046875-.109374.046875-.101563.015625-.035156.039062-.085938.011719-.023437.046875-.105469.015625-.027344.046875-.101562.003906-.011719.046875-.109375.015625-.027344.050781-.109375.050782-.117187.023437-.050781.03125-.0625.027344-.0625.023437-.050782.03125-.066406.023438-.050781.03125-.066407.019531-.046874.035157-.070313.015624-.039063.039063-.078124.011719-.03125.042968-.085938v-.007812c.066407-.140626.132813-.28125.199219-.425782l.003907-.007812.046874-.097656.007813-.011719.046875-.101563.003906-.011718.046875-.097657.007813-.011719c2.292968-4.851562 4.839844-9.628906 7.644531-14.332031l.003906-.007812.058594-.097657.003906-.007812.0625-.101562.003907-.003907c.121093-.207031.246093-.414062.371093-.621093l.007813-.015626.054687-.085937.011719-.023437.046875-.078126.023437-.035156.042969-.074218.023438-.035157.042969-.074219.023437-.039062.046875-.074219.015625-.027343.050781-.082032.011719-.019531c.054687-.09375.113281-.1875.171875-.28125l.011719-.019531.042969-.074219.023437-.039063.042969-.066406.027344-.046875.039062-.0625.03125-.050781.035156-.058594.03125-.050781.039063-.0625.027343-.046875.039063-.0625.03125-.050781.039063-.058594.054687-.089844.023437-.042969.054688-.089843.027344-.042969.042968-.070312.023438-.039063.050781-.074219.023438-.039062.042969-.074219.027343-.042969.042969-.066406.03125-.050781.039062-.066407.027344-.039062.050782-.082031.019531-.03125c.097656-.152344.1875-.300781.285156-.453125l.015625-.023438.058594-.09375.011718-.023437.058594-.085938.015625-.03125.058594-.089843.011719-.019532.066406-.101562.003906-.011719c.101563-.15625.195313-.304687.296875-.464844h.003907l.070312-.113281.003906-.007812.066406-.105469.011719-.015625.0625-.101563.078125-.117187.003906-.007813c.148438-.230469.296876-.464843.449219-.695312l.003907-.007813.074218-.109375v-.003906c.175782-.269531.355469-.542969.53125-.8125l.078125-.117187.074219-.113282c1.074219-1.628906 2.171875-3.242187 3.300781-4.839844l.007813-.015624.074218-.101563.003907-.007813.074219-.101562.007812-.015625.074219-.101563.003906-.007812.078125-.109375.003906-.003906c.078125-.113281.160156-.230469.238282-.339844l.011718-.015625.066406-.09375.023438-.03125.054688-.078125.023437-.035156.054687-.070313.027344-.039062.050782-.074219.027343-.035156.050781-.070313.027344-.042968.054688-.078126.023437-.03125.070313-.097656.035156-.046875.050781-.070312.035157-.050781.039062-.050782.046875-.066406.03125-.042969.046875-.066406.027344-.039063.050781-.066406.027344-.039062.050781-.070313.019531-.027343.042969-.058594c.125-.171875.246094-.347656.367188-.523438.125-.15625.246093-.320312.367187-.480468 21.914063-29.808594 53.457031-55.449219 88.957031-73.585938 11.429688-5.882812 15.925782-19.917969 10.042969-31.347656-3.988281-7.753906-11.980469-12.625-20.703125-12.621094zm0 0" fill="#ffef7d"/><path d="m395.636719 213.714844c-12.855469 0-23.273438 10.421875-23.273438 23.273437v1.28125c0 .214844.003907.425781.007813.640625-.003906.210938-.007813.425782-.007813.636719v38.589844l-38.96875 25.976562c-44.347656 6.128907-72.824219 37.175781-86.339843 56.09375l-19.773438 9.886719c-4.316406-1.15625-9.199219-2.523438-14.203125-4.054688-.628906-1.367187-1.175781-2.777343-1.628906-4.210937-3.894531-12.25-16.980469-19.023437-29.230469-15.128906-12.25 3.890625-19.023438 16.976562-15.128906 29.226562 1.519531 4.789063 3.46875 9.425781 5.820312 13.863281l.003906.003907c.058594.113281.121094.230469.183594.34375v.003906l.0625.113281c.042969.078125.082032.152344.125.230469l.003906.003906.058594.109375.003906.007813c.0625.113281.121094.222656.183594.335937l.007813.011719.058593.105469v.003906c.042969.078125.085938.152344.128907.226562v.007813l.058593.101563.007813.015624.058594.105469.003906.003907c.039063.074218.082031.148437.125.222656l.003906.011718.058594.097657.007813.015625c.042968.074218.082031.148437.125.21875l.003906.007812.058594.101563.007812.015625.058594.101562.003906.007813c.042969.070312.085938.144531.128906.21875l.007813.015625.054687.09375.011719.015625c.039063.074219.082031.144531.125.21875l.007813.011719.054687.09375.011719.023437.054687.089844.007813.015625.066406.109375.0625.101562.011719.023438.050781.085937.015625.023438c.042969.070312.082031.140625.125.210937l.011719.019531.050781.085938.015625.027344.054688.085937.007812.015625.066406.109375.003906.003907.058594.097656.015625.027344.050781.082031.015626.023437.058593.097656.003907.003907.066406.109375.011718.015625.050782.085937.015625.027344.054687.085938.011719.015624.066406.105469.003907.011719.058593.089844.019531.03125.046876.074218.019531.03125.054687.089844.007813.011719.066406.101563.015625.027343.046875.078125.019531.03125.046875.074219.019531.027344.066407.101562.007812.011719.054688.089844.023437.03125.042969.070312.023437.035156.050782.078126.015625.023437.0625.097656.015625.027344.050781.074219.023437.035156.042969.066406.023438.035156.0625.097657.015625.027343.046875.070313.027343.039063.039063.0625.027344.039062.046875.070312.019531.027344.0625.097656.027344.039063.039062.058594.027344.042969.042969.0625.023437.035156.0625.097656.019531.023438.046876.074218.027343.039063.042969.0625.023438.035156.050781.078125.019531.023438.0625.09375.023438.039062.042968.058594.027344.042968.042969.0625.027343.035157.085938.128906.042969.0625.03125.042969.039062.054687.070313.105469.027344.039062.0625.089844.027343.042969.039063.054687.03125.046876.039062.050781.078125.117187.039063.054688.042968.0625.03125.042968.039063.050782.03125.046875.039063.050781.035156.054688.058594.078124.03125.046876.035156.050781.035156.046875.035156.050781.035156.046875.046876.066406.085937.117188.03125.042968.039063.054688.03125.042969.042968.0625.027344.035156.0625.089844.03125.039062.042969.058594.027343.039063.042969.058593.03125.039063.050781.070312.042969.0625.078125.101563.03125.046875.035156.046875.039063.050781.035156.042969.0625.085937.035157.046875.035156.050781.035156.046876.039062.046874.035157.046876.042969.058593.050781.070313.039062.050781.035157.046875.039062.050781.035156.046875.039063.046875.03125.046875.066406.085938.035156.042968.039063.054688.035156.042969.035156.046875.078125.101562.058594.074219.039063.050781.035156.050782.035156.042968.039062.050782.035157.042968.050781.066406.054688.070313.035156.042969.035156.046875.039062.046875.035157.050781.039062.042969.042969.058594.050781.066406.046875.054687.03125.042969.042969.050781.035156.042969.042969.058594.027344.035156.105468.128906.039063.050782.035156.042968.042969.054688.03125.039062.058594.070313.035156.046875.050781.0625.035157.042968.042968.054688.078125.097656.03125.035156.070313.085938.03125.039062.042968.054688.035157.042969.042969.050781.035156.042969.054687.066406.035157.042969.054687.070312.03125.03125.046875.0625.03125.035156.054688.066407.023437.027343.074219.089844.023437.027344.054688.066406.027343.03125.050782.0625.03125.035156.066406.082032.015625.015625.070313.082031.027343.03125.050781.0625.027344.035156.082032.09375.074218.085938.023438.027344.054687.066406.03125.035156.050781.058594.027344.03125.078125.09375c10.3125 3.753906 21.460938 7.027344 30.535157 9.480468l.011718.003907c.058594.015625.117188.03125.171875.046875 10.398438 2.804687 18.035157 4.523437 18.496094 4.625l.007813-.027344.015624.035156 46.542969-23.273437s24.671875-46.546875 69.820313-46.546875l69.820312-46.542969v-63.5c0-.210937-.003906-.425781-.011718-.640625.007812-.210938.011718-.425781.011718-.636719v-1.28125c0-1.59375-.160156-3.179687-.484375-4.738281-.785156-1.605469-2.464843-5.085938-4.574219-9.75-4.410156-5.554688-11.121093-8.789062-18.214843-8.785156zm0 0" fill="#f4920b"/><path d="m326.046875 512.394531c49.820313.261719 97.582031-19.839843 132.214844-55.648437 56.492187-58.613282 71.46875-152.644532 29.9375-234.765625-5.609375 221.023437-159.671875 289.335937-162.152344 290.414062zm0 0" fill="#97623f"/><path d="m418.910156 454.316406c0 6.429688-5.210937 11.636719-11.636718 11.636719-6.425782 0-11.636719-5.207031-11.636719-11.636719 0-6.425781 5.210937-11.632812 11.636719-11.632812 6.425781 0 11.636718 5.207031 11.636718 11.632812zm0 0" fill="#764126"/><path d="m488.726562 384.5c0 6.425781-5.210937 11.636719-11.636718 11.636719-6.425782 0-11.636719-5.210938-11.636719-11.636719s5.210937-11.636719 11.636719-11.636719c6.425781 0 11.636718 5.210938 11.636718 11.636719zm0 0" fill="#764126"/><path d="m442.183594 337.953125c0 6.429687-5.210938 11.636719-11.636719 11.636719-6.429687 0-11.636719-5.207032-11.636719-11.636719 0-6.425781 5.207032-11.636719 11.636719-11.636719 6.425781 0 11.636719 5.210938 11.636719 11.636719zm0 0" fill="#97623f"/><path d="m349.089844 431.046875c0 6.425781-5.207032 11.636719-11.636719 11.636719-6.425781 0-11.636719-5.210938-11.636719-11.636719 0-6.429687 5.210938-11.636719 11.636719-11.636719 6.429687 0 11.636719 5.207032 11.636719 11.636719zm0 0" fill="#97623f"/><path d="m279.273438 477.589844c0 6.425781-5.210938 11.636718-11.636719 11.636718s-11.636719-5.210937-11.636719-11.636718c0-6.425782 5.210938-11.636719 11.636719-11.636719s11.636719 5.210937 11.636719 11.636719zm0 0" fill="#764126"/><path d="m370.792969 230.484375c-8.117188-21.316406-45.253907-26.960937-82.949219-12.605469-37.691406 14.355469-61.667969 43.273438-53.550781 64.589844 8.117187 21.316406 45.257812 26.960938 82.949219 12.605469 37.695312-14.355469 61.671874-43.273438 53.550781-64.589844zm0 0" fill="#ffd432"/><path d="m360.0625 198.957031c-11.332031-11.332031-25.4375-15.597656-31.5-9.535156-6.0625 6.066406-1.792969 20.167969 9.539062 31.5 11.335938 11.328125 25.4375 15.597656 31.5 9.53125 6.066407-6.066406 1.792969-20.167969-9.539062-31.496094zm0 0" fill="#ffef7d"/></svg>